# Blender 5.1.2
# www.blender.org
mtllib entidad.mtl
g Object_5_Malla
v 34.715660 20.829397 1.388630
v 34.715660 20.829397 -1.388623
v 34.715660 2.777253 1.388627
v 34.715660 2.777253 -1.388626
v 31.938406 20.829397 -1.388623
v 31.938406 20.829397 1.388630
v 31.938406 2.777253 -1.388626
v 31.938406 2.777253 1.388627
v 31.938406 20.829397 -1.388623
v 34.715660 20.829397 -1.388623
v 31.938406 20.829397 1.388630
v 34.715660 20.829397 1.388630
v 31.938406 2.777253 1.388627
v 34.715660 2.777253 1.388627
v 31.938406 2.777253 -1.388626
v 34.715660 2.777253 -1.388626
v 31.938406 20.829397 1.388630
v 34.715660 20.829397 1.388630
v 31.938406 2.777253 1.388627
v 34.715660 2.777253 1.388627
v 34.715660 20.829397 -1.388623
v 31.938406 20.829397 -1.388623
v 34.715660 2.777253 -1.388626
v 31.938406 2.777253 -1.388626
vn 1.0000 -0.0000 -0.0000
vn -1.0000 -0.0000 -0.0000
vn -0.0000 1.0000 -0.0000
vn -0.0000 -1.0000 -0.0000
vn -0.0000 -0.0000 1.0000
vn -0.0000 -0.0000 -1.0000
vt 0.000000 0.000000
vt 0.000000 0.145203
vt 0.016785 0.000000
vt 0.016785 0.145203
vt 0.000000 0.022339
vt 0.016785 0.022339
s 0
g Object_5_material_0
usemtl material_0
f 1/1/1 3/2/1 2/3/1
f 3/2/1 4/4/1 2/3/1
f 5/1/2 7/2/2 6/3/2
f 7/2/2 8/4/2 6/3/2
f 9/1/3 11/5/3 10/3/3
f 11/5/3 12/6/3 10/3/3
f 13/1/4 15/5/4 14/3/4
f 15/5/4 16/6/4 14/3/4
f 17/1/5 19/2/5 18/3/5
f 19/2/5 20/4/5 18/3/5
f 21/1/6 23/2/6 22/3/6
f 23/2/6 24/4/6 22/3/6
g Object_7_Malla
v 26.887981 36.689022 1.388633
v 26.887981 36.689022 -1.388620
v 34.859047 17.445169 1.388629
v 34.859047 17.445169 -1.388623
v 24.322136 35.626213 -1.388620
v 24.322136 35.626213 1.388633
v 32.293201 16.382360 -1.388624
v 32.293201 16.382360 1.388629
v 24.322136 35.626213 -1.388620
v 26.887981 36.689022 -1.388620
v 24.322136 35.626213 1.388633
v 26.887981 36.689022 1.388633
v 32.293201 16.382360 1.388629
v 34.859047 17.445169 1.388629
v 32.293201 16.382360 -1.388624
v 34.859047 17.445169 -1.388623
v 24.322136 35.626213 1.388633
v 26.887981 36.689022 1.388633
v 32.293201 16.382360 1.388629
v 34.859047 17.445169 1.388629
v 26.887981 36.689022 -1.388620
v 24.322136 35.626213 -1.388620
v 34.859047 17.445169 -1.388623
v 32.293201 16.382360 -1.388624
vn 0.9239 0.3827 -0.0000
vn -0.9239 -0.3827 -0.0000
vn -0.3827 0.9239 -0.0000
vn 0.3827 -0.9239 -0.0000
vn -0.0000 -0.0000 1.0000
vn -0.0000 -0.0000 -1.0000
vt 0.000000 0.000000
vt 0.000000 0.167542
vt 0.016785 0.000000
vt 0.016785 0.167542
vt 0.000000 0.022339
vt 0.016785 0.022339
s 0
g Object_7_material_0
usemtl material_0
f 25/7/7 27/8/7 26/9/7
f 27/8/7 28/10/7 26/9/7
f 29/7/8 31/8/8 30/9/8
f 31/8/8 32/10/8 30/9/8
f 33/7/9 35/11/9 34/9/9
f 35/11/9 36/12/9 34/9/9
f 37/7/10 39/11/10 38/9/10
f 39/11/10 40/12/10 38/9/10
f 41/7/11 43/8/11 42/9/11
f 43/8/11 44/10/11 42/9/11
f 45/7/12 47/8/12 46/9/12
f 47/8/12 48/10/12 46/9/12
g Object_9_Malla
v 25.743763 35.493057 1.388632
v 25.743763 35.493057 -1.388620
v 16.940880 16.615211 1.388629
v 16.940880 16.615213 -1.388624
v 23.226719 36.666775 -1.388620
v 23.226719 36.666775 1.388633
v 14.423834 17.788931 -1.388623
v 14.423834 17.788929 1.388629
v 23.226719 36.666775 -1.388620
v 25.743763 35.493057 -1.388620
v 23.226719 36.666775 1.388633
v 25.743763 35.493057 1.388632
v 14.423834 17.788929 1.388629
v 16.940880 16.615211 1.388629
v 14.423834 17.788931 -1.388623
v 16.940880 16.615213 -1.388624
v 23.226719 36.666775 1.388633
v 25.743763 35.493057 1.388632
v 14.423834 17.788929 1.388629
v 16.940880 16.615211 1.388629
v 25.743763 35.493057 -1.388620
v 23.226719 36.666775 -1.388620
v 16.940880 16.615213 -1.388624
v 14.423834 17.788931 -1.388623
vn 0.9063 -0.4226 -0.0000
vn -0.9063 0.4226 -0.0000
vn 0.4226 0.9063 -0.0000
vn -0.4226 -0.9063 -0.0000
vn -0.0000 -0.0000 1.0000
vn -0.0000 -0.0000 -1.0000
vt 0.000000 0.000000
vt 0.000000 0.167542
vt 0.016785 0.000000
vt 0.016785 0.167542
vt 0.000000 0.022339
vt 0.016785 0.022339
s 0
g Object_9_material_0
usemtl material_0
f 49/13/13 51/14/13 50/15/13
f 51/14/13 52/16/13 50/15/13
f 53/13/14 55/14/14 54/15/14
f 55/14/14 56/16/14 54/15/14
f 57/13/15 59/17/15 58/15/15
f 59/17/15 60/18/15 58/15/15
f 61/13/16 63/17/16 62/15/16
f 63/17/16 64/18/16 62/15/16
f 65/13/17 67/14/17 66/15/17
f 67/14/17 68/16/17 66/15/17
f 69/13/18 71/14/18 70/15/18
f 71/14/18 72/16/18 70/15/18
g Object_11_Malla
v 17.286873 18.786263 1.388630
v 17.286873 18.786263 -1.388623
v 24.916039 2.425465 1.388627
v 24.916039 2.425465 -1.388626
v 14.769829 17.612545 -1.388624
v 14.769829 17.612545 1.388629
v 22.398994 1.251747 -1.388626
v 22.398994 1.251747 1.388627
v 14.769829 17.612545 -1.388624
v 17.286873 18.786263 -1.388623
v 14.769829 17.612545 1.388629
v 17.286873 18.786263 1.388630
v 22.398994 1.251747 1.388627
v 24.916039 2.425465 1.388627
v 22.398994 1.251747 -1.388626
v 24.916039 2.425465 -1.388626
v 14.769829 17.612545 1.388629
v 17.286873 18.786263 1.388630
v 22.398994 1.251747 1.388627
v 24.916039 2.425465 1.388627
v 17.286873 18.786263 -1.388623
v 14.769829 17.612545 -1.388624
v 24.916039 2.425465 -1.388626
v 22.398994 1.251747 -1.388626
vn 0.9063 0.4226 -0.0000
vn -0.9063 -0.4226 -0.0000
vn -0.4226 0.9063 -0.0000
vn 0.4226 -0.9063 -0.0000
vn -0.0000 -0.0000 1.0000
vn -0.0000 -0.0000 -1.0000
vt 0.000000 0.000000
vt 0.000000 0.145203
vt 0.016785 0.000000
vt 0.016785 0.145203
vt 0.000000 0.022339
vt 0.016785 0.022339
s 0
g Object_11_material_0
usemtl material_0
f 73/19/19 75/20/19 74/21/19
f 75/20/19 76/22/19 74/21/19
f 77/19/20 79/20/20 78/21/20
f 79/20/20 80/22/20 78/21/20
f 81/19/21 83/23/21 82/21/21
f 83/23/21 84/24/21 82/21/21
f 85/19/22 87/23/22 86/21/22
f 87/23/22 88/24/22 86/21/22
f 89/19/23 91/20/23 90/21/23
f 91/20/23 92/22/23 90/21/23
f 93/19/24 95/20/24 94/21/24
f 95/20/24 96/22/24 94/21/24
g Object_13_Malla
v 26.383900 43.047421 1.388634
v 26.383900 43.047421 -1.388619
v 26.383900 33.327034 1.388632
v 26.383900 33.327034 -1.388621
v 23.606647 43.047421 -1.388619
v 23.606647 43.047421 1.388634
v 23.606647 33.327034 -1.388621
v 23.606647 33.327034 1.388632
v 23.606647 43.047421 -1.388619
v 26.383900 43.047421 -1.388619
v 23.606647 43.047421 1.388634
v 26.383900 43.047421 1.388634
v 23.606647 33.327034 1.388632
v 26.383900 33.327034 1.388632
v 23.606647 33.327034 -1.388621
v 26.383900 33.327034 -1.388621
v 23.606647 43.047421 1.388634
v 26.383900 43.047421 1.388634
v 23.606647 33.327034 1.388632
v 26.383900 33.327034 1.388632
v 26.383900 43.047421 -1.388619
v 23.606647 43.047421 -1.388619
v 26.383900 33.327034 -1.388621
v 23.606647 33.327034 -1.388621
vn 1.0000 -0.0000 -0.0000
vn -1.0000 -0.0000 -0.0000
vn -0.0000 1.0000 -0.0000
vn -0.0000 -1.0000 -0.0000
vn -0.0000 -0.0000 1.0000
vn -0.0000 -0.0000 -1.0000
vt 0.000000 0.000000
vt 0.000000 0.078186
vt 0.016785 0.000000
vt 0.016785 0.078186
vt 0.000000 0.022339
vt 0.016785 0.022339
s 0
g Object_13_material_0
usemtl material_0
f 97/25/25 99/26/25 98/27/25
f 99/26/25 100/28/25 98/27/25
f 101/25/26 103/26/26 102/27/26
f 103/26/26 104/28/26 102/27/26
f 105/25/27 107/29/27 106/27/27
f 107/29/27 108/30/27 106/27/27
f 109/25/28 111/29/28 110/27/28
f 111/29/28 112/30/28 110/27/28
f 113/25/29 115/26/29 114/27/29
f 115/26/29 116/28/29 114/27/29
f 117/25/30 119/26/30 118/27/30
f 119/26/30 120/28/30 118/27/30
g Object_15_Malla
v 30.549780 51.379177 1.388635
v 30.549780 51.379177 -1.388618
v 30.549780 41.658794 1.388633
v 30.549780 41.658794 -1.388619
v 20.829395 51.379177 -1.388618
v 20.829395 51.379177 1.388635
v 20.829395 41.658794 -1.388619
v 20.829395 41.658794 1.388633
v 20.829395 51.379177 -1.388618
v 30.549780 51.379177 -1.388618
v 20.829395 51.379177 1.388635
v 30.549780 51.379177 1.388635
v 20.829395 41.658794 1.388633
v 30.549780 41.658794 1.388633
v 20.829395 41.658794 -1.388619
v 30.549780 41.658794 -1.388619
v 20.829395 51.379177 1.388635
v 30.549780 51.379177 1.388635
v 20.829395 41.658794 1.388633
v 30.549780 41.658794 1.388633
v 30.549780 51.379177 -1.388618
v 20.829395 51.379177 -1.388618
v 30.549780 41.658794 -1.388619
v 20.829395 41.658794 -1.388619
vn 1.0000 -0.0000 -0.0000
vn -1.0000 -0.0000 -0.0000
vn -0.0000 1.0000 -0.0000
vn -0.0000 -1.0000 -0.0000
vn -0.0000 -0.0000 1.0000
vn -0.0000 -0.0000 -1.0000
vt 0.000000 0.000000
vt 0.000000 0.078186
vt 0.016785 0.000000
vt 0.016785 0.078186
vt 0.000000 0.022339
vt 0.058746 0.000000
vt 0.058746 0.022339
vt 0.058746 0.078186
s 0
g Object_15_material_0
usemtl material_0
f 121/31/31 123/32/31 122/33/31
f 123/32/31 124/34/31 122/33/31
f 125/31/32 127/32/32 126/33/32
f 127/32/32 128/34/32 126/33/32
f 129/31/33 131/35/33 130/36/33
f 131/35/33 132/37/33 130/36/33
f 133/31/34 135/35/34 134/36/34
f 135/35/34 136/37/34 134/36/34
f 137/31/35 139/32/35 138/36/35
f 139/32/35 140/38/35 138/36/35
f 141/31/36 143/32/36 142/36/36
f 143/32/36 144/38/36 142/36/36
g Object_17_Malla
v 34.715660 40.270168 1.388633
v 34.715660 40.270168 -1.388620
v 34.715660 22.218023 1.388630
v 34.715660 22.218025 -1.388623
v 31.938406 40.270168 -1.388620
v 31.938406 40.270168 1.388633
v 31.938406 22.218025 -1.388623
v 31.938406 22.218023 1.388630
v 31.938406 40.270168 -1.388620
v 34.715660 40.270168 -1.388620
v 31.938406 40.270168 1.388633
v 34.715660 40.270168 1.388633
v 31.938406 22.218023 1.388630
v 34.715660 22.218023 1.388630
v 31.938406 22.218025 -1.388623
v 34.715660 22.218025 -1.388623
v 31.938406 40.270168 1.388633
v 34.715660 40.270168 1.388633
v 31.938406 22.218023 1.388630
v 34.715660 22.218023 1.388630
v 34.715660 40.270168 -1.388620
v 31.938406 40.270168 -1.388620
v 34.715660 22.218025 -1.388623
v 31.938406 22.218025 -1.388623
vn 1.0000 -0.0000 -0.0000
vn -1.0000 -0.0000 -0.0000
vn -0.0000 1.0000 -0.0000
vn -0.0000 -1.0000 -0.0000
vn -0.0000 -0.0000 1.0000
vn -0.0000 -0.0000 -1.0000
vt 0.000000 0.000000
vt 0.000000 0.145203
vt 0.016785 0.000000
vt 0.016785 0.145203
vt 0.000000 0.022339
vt 0.016785 0.022339
s 0
g Object_17_material_0
usemtl material_0
f 145/39/37 147/40/37 146/41/37
f 147/40/37 148/42/37 146/41/37
f 149/39/38 151/40/38 150/41/38
f 151/40/38 152/42/38 150/41/38
f 153/39/39 155/43/39 154/41/39
f 155/43/39 156/44/39 154/41/39
f 157/39/40 159/43/40 158/41/40
f 159/43/40 160/44/40 158/41/40
f 161/39/41 163/40/41 162/41/41
f 163/40/41 164/42/41 162/41/41
f 165/39/42 167/40/42 166/41/42
f 167/40/42 168/42/42 166/41/42
g Object_19_Malla
v 17.286873 38.227036 1.388633
v 17.286873 38.227036 -1.388620
v 24.916039 21.866236 1.388630
v 24.916039 21.866236 -1.388623
v 14.769829 37.053314 -1.388620
v 14.769829 37.053314 1.388633
v 22.398994 20.692518 -1.388623
v 22.398994 20.692518 1.388630
v 14.769829 37.053314 -1.388620
v 17.286873 38.227036 -1.388620
v 14.769829 37.053314 1.388633
v 17.286873 38.227036 1.388633
v 22.398994 20.692518 1.388630
v 24.916039 21.866236 1.388630
v 22.398994 20.692518 -1.388623
v 24.916039 21.866236 -1.388623
v 14.769829 37.053314 1.388633
v 17.286873 38.227036 1.388633
v 22.398994 20.692518 1.388630
v 24.916039 21.866236 1.388630
v 17.286873 38.227036 -1.388620
v 14.769829 37.053314 -1.388620
v 24.916039 21.866236 -1.388623
v 22.398994 20.692518 -1.388623
vn 0.9063 0.4226 -0.0000
vn -0.9063 -0.4226 -0.0000
vn -0.4226 0.9063 -0.0000
vn 0.4226 -0.9063 -0.0000
vn -0.0000 -0.0000 1.0000
vn -0.0000 -0.0000 -1.0000
vt 0.000000 0.000000
vt 0.000000 0.145203
vt 0.016785 0.000000
vt 0.016785 0.145203
vt 0.000000 0.022339
vt 0.016785 0.022339
s 0
g Object_19_material_0
usemtl material_0
f 169/45/43 171/46/43 170/47/43
f 171/46/43 172/48/43 170/47/43
f 173/45/44 175/46/44 174/47/44
f 175/46/44 176/48/44 174/47/44
f 177/45/45 179/49/45 178/47/45
f 179/49/45 180/50/45 178/47/45
f 181/45/46 183/49/46 182/47/46
f 183/49/46 184/50/46 182/47/46
f 185/45/47 187/46/47 186/47/47
f 187/46/47 188/48/47 186/47/47
f 189/45/48 191/46/48 190/47/48
f 191/46/48 192/48/48 190/47/48
g Object_21_Malla
v 22.809469 48.641212 1.388635
v 22.809469 48.641212 -1.388618
v 16.940880 36.055984 1.388632
v 16.940880 36.055984 -1.388620
v 20.292423 49.814934 -1.388618
v 20.292423 49.814934 1.388635
v 14.423834 37.229702 -1.388620
v 14.423834 37.229698 1.388633
v 20.292423 49.814934 -1.388618
v 22.809469 48.641212 -1.388618
v 20.292423 49.814934 1.388635
v 22.809469 48.641212 1.388635
v 14.423834 37.229698 1.388633
v 16.940880 36.055984 1.388632
v 14.423834 37.229702 -1.388620
v 16.940880 36.055984 -1.388620
v 20.292423 49.814934 1.388635
v 22.809469 48.641212 1.388635
v 14.423834 37.229698 1.388633
v 16.940880 36.055984 1.388632
v 22.809469 48.641212 -1.388618
v 20.292423 49.814934 -1.388618
v 16.940880 36.055984 -1.388620
v 14.423834 37.229702 -1.388620
vn 0.9063 -0.4226 -0.0000
vn -0.9063 0.4226 -0.0000
vn 0.4226 0.9063 -0.0000
vn -0.4226 -0.9063 -0.0000
vn -0.0000 -0.0000 1.0000
vn -0.0000 -0.0000 -1.0000
vt 0.000000 0.000000
vt 0.000000 0.111694
vt 0.016785 0.000000
vt 0.016785 0.111694
vt 0.000000 0.022339
vt 0.016785 0.022339
s 0
g Object_21_material_0
usemtl material_0
f 193/51/49 195/52/49 194/53/49
f 195/52/49 196/54/49 194/53/49
f 197/51/50 199/52/50 198/53/50
f 199/52/50 200/54/50 198/53/50
f 201/51/51 203/55/51 202/53/51
f 203/55/51 204/56/51 202/53/51
f 205/51/52 207/55/52 206/53/52
f 207/55/52 208/56/52 206/53/52
f 209/51/53 211/52/53 210/53/53
f 211/52/53 212/54/53 210/53/53
f 213/51/54 215/52/54 214/53/54
f 215/52/54 216/54/54 214/53/54
g Object_23_Malla
v 29.013599 50.998100 1.388635
v 29.013599 50.998100 -1.388618
v 34.859047 36.885941 1.388633
v 34.859047 36.885941 -1.388620
v 26.447754 49.935295 -1.388618
v 26.447754 49.935295 1.388635
v 32.293201 35.823132 -1.388620
v 32.293201 35.823132 1.388633
v 26.447754 49.935295 -1.388618
v 29.013599 50.998100 -1.388618
v 26.447754 49.935295 1.388635
v 29.013599 50.998100 1.388635
v 32.293201 35.823132 1.388633
v 34.859047 36.885941 1.388633
v 32.293201 35.823132 -1.388620
v 34.859047 36.885941 -1.388620
v 26.447754 49.935295 1.388635
v 29.013599 50.998100 1.388635
v 32.293201 35.823132 1.388633
v 34.859047 36.885941 1.388633
v 29.013599 50.998100 -1.388618
v 26.447754 49.935295 -1.388618
v 34.859047 36.885941 -1.388620
v 32.293201 35.823132 -1.388620
vn 0.9239 0.3827 -0.0000
vn -0.9239 -0.3827 -0.0000
vn -0.3827 0.9239 -0.0000
vn 0.3827 -0.9239 -0.0000
vn -0.0000 -0.0000 1.0000
vn -0.0000 -0.0000 -1.0000
vt 0.000000 0.000000
vt 0.000000 0.122864
vt 0.016785 0.000000
vt 0.016785 0.122864
vt 0.000000 0.022339
vt 0.016785 0.022339
s 0
g Object_23_material_0
usemtl material_0
f 217/57/55 219/58/55 218/59/55
f 219/58/55 220/60/55 218/59/55
f 221/57/56 223/58/56 222/59/56
f 223/58/56 224/60/56 222/59/56
f 225/57/57 227/61/57 226/59/57
f 227/61/57 228/62/57 226/59/57
f 229/57/58 231/61/58 230/59/58
f 231/61/58 232/62/58 230/59/58
f 233/57/59 235/58/59 234/59/59
f 235/58/59 236/60/59 234/59/59
f 237/57/60 239/58/60 238/59/60
f 239/58/60 240/60/60 238/59/60
g Object_25_Malla
v 26.834574 62.218552 1.388637
v 26.834574 62.218552 -1.388616
v 30.554405 53.238091 1.388635
v 30.554405 53.238091 -1.388618
v 17.854109 58.498722 -1.388617
v 17.854109 58.498722 1.388636
v 21.573940 49.518257 -1.388618
v 21.573940 49.518257 1.388635
v 17.854109 58.498722 -1.388617
v 26.834574 62.218552 -1.388616
v 17.854109 58.498722 1.388636
v 26.834574 62.218552 1.388637
v 21.573940 49.518257 1.388635
v 30.554405 53.238091 1.388635
v 21.573940 49.518257 -1.388618
v 30.554405 53.238091 -1.388618
v 17.854109 58.498722 1.388636
v 26.834574 62.218552 1.388637
v 21.573940 49.518257 1.388635
v 30.554405 53.238091 1.388635
v 26.834574 62.218552 -1.388616
v 17.854109 58.498722 -1.388617
v 30.554405 53.238091 -1.388618
v 21.573940 49.518257 -1.388618
vn 0.9239 0.3827 -0.0000
vn -0.9239 -0.3827 -0.0000
vn -0.3827 0.9239 -0.0000
vn 0.3827 -0.9239 -0.0000
vn -0.0000 -0.0000 1.0000
vn -0.0000 -0.0000 -1.0000
vt 0.000000 0.000000
vt 0.000000 0.090149
vt 0.029053 0.000000
vt 0.029053 0.090149
vt 0.000000 0.025757
vt 0.101685 0.000000
vt 0.101685 0.025757
vt 0.257812 0.148914
vt 0.257812 0.232136
vt 0.390747 0.148914
vt 0.390747 0.232136
vt 0.101685 0.090149
s 0
g Object_25_material_1
usemtl material_1
f 241/63/61 243/64/61 242/65/61
f 243/64/61 244/66/61 242/65/61
f 245/63/62 247/64/62 246/65/62
f 247/64/62 248/66/62 246/65/62
f 249/63/63 251/67/63 250/68/63
f 251/67/63 252/69/63 250/68/63
f 253/63/64 255/67/64 254/68/64
f 255/67/64 256/69/64 254/68/64
f 257/70/65 259/71/65 258/72/65
f 259/71/65 260/73/65 258/72/65
f 261/63/66 263/64/66 262/68/66
f 263/64/66 264/74/66 262/68/66
